<mxfile host="Electron" agent="Mozilla/5.0 (Macintosh; Intel Mac OS X 10_15_7) AppleWebKit/537.36 (KHTML, like Gecko) draw.io/26.0.9 Chrome/128.0.6613.186 Electron/32.2.5 Safari/537.36" version="26.0.9">
  <diagram name="PÃ¡gina-1" id="421CkpJ36QQit9OZ3w18">
    <mxGraphModel dx="2074" dy="765" grid="1" gridSize="10" guides="1" tooltips="1" connect="1" arrows="1" fold="1" page="1" pageScale="1" pageWidth="827" pageHeight="1169" math="0" shadow="0">
      <root>
        <mxCell id="0" />
        <mxCell id="1" parent="0" />
        <mxCell id="taIV5wBfEQt082lAZIfE-11" style="edgeStyle=orthogonalEdgeStyle;rounded=0;orthogonalLoop=1;jettySize=auto;html=1;exitX=1;exitY=0.5;exitDx=0;exitDy=0;entryX=0;entryY=0.5;entryDx=0;entryDy=0;" edge="1" parent="1" source="taIV5wBfEQt082lAZIfE-1" target="taIV5wBfEQt082lAZIfE-9">
          <mxGeometry relative="1" as="geometry" />
        </mxCell>
        <mxCell id="taIV5wBfEQt082lAZIfE-19" value="Publicar&lt;div&gt;Worspace&lt;div&gt;Millev&lt;/div&gt;&lt;/div&gt;" style="edgeLabel;html=1;align=center;verticalAlign=middle;resizable=0;points=[];" vertex="1" connectable="0" parent="taIV5wBfEQt082lAZIfE-11">
          <mxGeometry x="0.0211" relative="1" as="geometry">
            <mxPoint as="offset" />
          </mxGeometry>
        </mxCell>
        <mxCell id="taIV5wBfEQt082lAZIfE-1" value="Cuenta Power Bi Cliente" style="rounded=0;whiteSpace=wrap;html=1;" vertex="1" parent="1">
          <mxGeometry x="140" y="90" width="120" height="60" as="geometry" />
        </mxCell>
        <mxCell id="taIV5wBfEQt082lAZIfE-14" style="edgeStyle=orthogonalEdgeStyle;rounded=0;orthogonalLoop=1;jettySize=auto;html=1;exitX=1;exitY=0.5;exitDx=0;exitDy=0;entryX=0;entryY=0.5;entryDx=0;entryDy=0;" edge="1" parent="1" source="taIV5wBfEQt082lAZIfE-2" target="taIV5wBfEQt082lAZIfE-13">
          <mxGeometry relative="1" as="geometry" />
        </mxCell>
        <mxCell id="taIV5wBfEQt082lAZIfE-2" value="Cuenta Power Bi Embbed" style="rounded=0;whiteSpace=wrap;html=1;" vertex="1" parent="1">
          <mxGeometry x="360" y="90" width="120" height="60" as="geometry" />
        </mxCell>
        <mxCell id="taIV5wBfEQt082lAZIfE-5" style="edgeStyle=orthogonalEdgeStyle;rounded=0;orthogonalLoop=1;jettySize=auto;html=1;exitX=0.5;exitY=0;exitDx=0;exitDy=0;exitPerimeter=0;entryX=0.5;entryY=1;entryDx=0;entryDy=0;" edge="1" parent="1" source="taIV5wBfEQt082lAZIfE-3" target="taIV5wBfEQt082lAZIfE-4">
          <mxGeometry relative="1" as="geometry" />
        </mxCell>
        <mxCell id="taIV5wBfEQt082lAZIfE-3" value="BD Local" style="shape=cylinder3;whiteSpace=wrap;html=1;boundedLbl=1;backgroundOutline=1;size=15;" vertex="1" parent="1">
          <mxGeometry x="170" y="410" width="60" height="80" as="geometry" />
        </mxCell>
        <mxCell id="taIV5wBfEQt082lAZIfE-10" style="edgeStyle=orthogonalEdgeStyle;rounded=0;orthogonalLoop=1;jettySize=auto;html=1;exitX=0.5;exitY=0;exitDx=0;exitDy=0;entryX=0.5;entryY=1;entryDx=0;entryDy=0;" edge="1" parent="1" source="taIV5wBfEQt082lAZIfE-4" target="taIV5wBfEQt082lAZIfE-1">
          <mxGeometry relative="1" as="geometry" />
        </mxCell>
        <mxCell id="taIV5wBfEQt082lAZIfE-4" value="GATEWEY" style="shape=hexagon;perimeter=hexagonPerimeter2;whiteSpace=wrap;html=1;fixedSize=1;" vertex="1" parent="1">
          <mxGeometry x="150" y="300" width="100" height="50" as="geometry" />
        </mxCell>
        <mxCell id="taIV5wBfEQt082lAZIfE-12" style="edgeStyle=orthogonalEdgeStyle;rounded=0;orthogonalLoop=1;jettySize=auto;html=1;exitX=0.5;exitY=0;exitDx=0;exitDy=0;entryX=0.5;entryY=1;entryDx=0;entryDy=0;" edge="1" parent="1" source="taIV5wBfEQt082lAZIfE-9" target="taIV5wBfEQt082lAZIfE-2">
          <mxGeometry relative="1" as="geometry" />
        </mxCell>
        <mxCell id="taIV5wBfEQt082lAZIfE-9" value="WordSpace&lt;div&gt;&lt;span style=&quot;background-color: transparent; color: light-dark(rgb(0, 0, 0), rgb(255, 255, 255));&quot;&gt;Embbed&lt;/span&gt;&lt;/div&gt;" style="rounded=0;whiteSpace=wrap;html=1;" vertex="1" parent="1">
          <mxGeometry x="360" y="180" width="120" height="60" as="geometry" />
        </mxCell>
        <mxCell id="taIV5wBfEQt082lAZIfE-13" value="Mivisualization" style="rounded=0;whiteSpace=wrap;html=1;" vertex="1" parent="1">
          <mxGeometry x="550" y="90" width="120" height="60" as="geometry" />
        </mxCell>
        <mxCell id="taIV5wBfEQt082lAZIfE-20" style="edgeStyle=orthogonalEdgeStyle;rounded=0;orthogonalLoop=1;jettySize=auto;html=1;exitX=1;exitY=0.5;exitDx=0;exitDy=0;entryX=0;entryY=0.5;entryDx=0;entryDy=0;" edge="1" parent="1" source="taIV5wBfEQt082lAZIfE-15" target="taIV5wBfEQt082lAZIfE-16">
          <mxGeometry relative="1" as="geometry" />
        </mxCell>
        <mxCell id="taIV5wBfEQt082lAZIfE-21" value="Invitar usuario externo" style="edgeLabel;html=1;align=center;verticalAlign=middle;resizable=0;points=[];" vertex="1" connectable="0" parent="taIV5wBfEQt082lAZIfE-20">
          <mxGeometry x="-0.225" y="-2" relative="1" as="geometry">
            <mxPoint as="offset" />
          </mxGeometry>
        </mxCell>
        <mxCell id="taIV5wBfEQt082lAZIfE-15" value="MIS" style="text;html=1;align=center;verticalAlign=middle;whiteSpace=wrap;rounded=0;" vertex="1" parent="1">
          <mxGeometry x="140" y="50" width="60" height="30" as="geometry" />
        </mxCell>
        <mxCell id="taIV5wBfEQt082lAZIfE-16" value="MILLEV" style="text;html=1;align=center;verticalAlign=middle;whiteSpace=wrap;rounded=0;" vertex="1" parent="1">
          <mxGeometry x="400" y="50" width="60" height="30" as="geometry" />
        </mxCell>
        <mxCell id="taIV5wBfEQt082lAZIfE-17" value="KLUNA" style="text;html=1;align=center;verticalAlign=middle;whiteSpace=wrap;rounded=0;" vertex="1" parent="1">
          <mxGeometry x="90" y="320" width="60" height="30" as="geometry" />
        </mxCell>
        <mxCell id="taIV5wBfEQt082lAZIfE-18" value="KLUNA" style="text;html=1;align=center;verticalAlign=middle;whiteSpace=wrap;rounded=0;" vertex="1" parent="1">
          <mxGeometry x="130" y="160" width="60" height="30" as="geometry" />
        </mxCell>
        <UserObject label="https://entra.microsoft.com/#home" link="https://entra.microsoft.com/#home" id="taIV5wBfEQt082lAZIfE-22">
          <mxCell style="text;whiteSpace=wrap;" vertex="1" parent="1">
            <mxGeometry x="570" y="410" width="210" height="40" as="geometry" />
          </mxCell>
        </UserObject>
      </root>
    </mxGraphModel>
  </diagram>
</mxfile>
